<?xml version="1.0" encoding="UTF-8"?>
<svg id="Calque_2" xmlns="http://www.w3.org/2000/svg" viewBox="0 0 118.88 118.32">
  <defs>
    <style>
      .cls-1 {
        fill: #056046;
      }

      .cls-2 {
        fill: #cf4ca7;
      }
    </style>
  </defs>
  <g id="Calque_1-2" data-name="Calque_1">
    <g>
      <path class="cls-1" d="M59.22,85.11c-2.31,0-4.66-.61-6.79-1.77-4.95-2.71-7.9-7.83-8.78-15.25-.12-.96-.21-2.01-.26-3.18-.03-.59-.04-1.19-.04-1.82v-4.44c0-.83.03-1.66.09-2.46,0-.17.02-.35.05-.53-4.27-.39-8.69-.36-12.88-.27l-2.49.05-.17-8.3,2.5-.05c4.78-.09,9.85-.13,14.96.43,3.6-8.98,11.55-14.3,21.48-14.3,14.14,0,24.02,10.42,24.02,25.33v26.09h-8.31v-25.8c0-.26,0-.53-.02-.79,0-.21,0-.38-.02-.54-.02-.4-.05-.73-.09-1.08-1.24-11.06-8.86-15-15.58-15-5.81,0-10.37,2.73-12.99,7.72,15.31,4.51,18.51,14.92,19.13,18.1,1.13,5.83-1.17,11.8-5.85,15.22-2.35,1.72-5.11,2.64-7.96,2.64ZM35.21,52.33c3.35,0,6.77.11,10.11.5l1.53.18-.22,1.53c-.06.44-.12.88-.15,1.33l-.02.16c-.02.11-.02.23-.03.35-.06.76-.09,1.51-.09,2.26v4.44c0,.57,0,1.13.04,1.67.05,1.09.13,2.08.24,2.96.76,6.4,3.2,10.77,7.24,12.98,3.75,2.04,8.2,1.8,11.54-.65,3.75-2.74,5.58-7.53,4.67-12.22-2.21-11.29-14.84-15.29-18.66-16.24l-1.68-.42.66-1.6c2.91-7.07,8.92-11.13,16.49-11.13,12.23,0,17.64,9.52,18.56,17.67.04.4.08.79.1,1.19.02.2.03.46.03.7.01.24.02.55.02.85v22.8h2.31v-23.09c0-13.15-8.64-22.33-21.02-22.33-9.01,0-16.14,5.02-19.07,13.42l-.4,1.15-1.21-.16c-5.13-.66-10.31-.65-15.2-.56l.05,2.3c1.37-.02,2.75-.04,4.15-.04ZM59.21,79.82c-1.42,0-2.86-.38-4.24-1.13-4.17-2.28-6.3-7.53-6.32-15.6v-4.34c0-1.28.09-2.54.27-3.72l.24-1.63,1.6.4c3.9.96,7.62,2.67,10.49,4.8,3.58,2.66,5.86,6.01,6.58,9.69.06.28.1.57.14.84.04.41.06.78.06,1.14,0,.29-.01.57-.04.86-.25,2.86-1.68,5.44-3.93,7.09h0c-1.48,1.08-3.14,1.62-4.83,1.62ZM51.7,57.16c-.03.52-.05,1.04-.05,1.58v4.34c.02,6.9,1.62,11.26,4.76,12.97,2.02,1.11,4.11,1.01,5.88-.27,1.55-1.14,2.53-2.93,2.71-4.92.02-.2.02-.4.02-.61,0-.26-.02-.54-.04-.81-.02-.16-.06-.37-.1-.59-.58-2.98-2.41-5.62-5.42-7.86-2.15-1.6-4.86-2.93-7.75-3.83Z"/>
      <path class="cls-2" d="M53.51,118.32c-.17,0-.34,0-.51-.03-5.52-.57-10.91-1.9-16.04-3.96-1.27-.51-2.25-1.5-2.75-2.78-.5-1.29-.45-2.74.15-3.98,1.13-2.37,3.93-3.45,6.37-2.47,4.24,1.7,8.7,2.8,13.25,3.27,2.62.27,4.59,2.54,4.48,5.16-.06,1.38-.69,2.69-1.73,3.59-.91.79-2.04,1.21-3.21,1.21ZM38.86,107.74c-.75,0-1.46.42-1.79,1.12-.24.5-.26,1.08-.06,1.6.2.5.58.89,1.07,1.09,4.87,1.96,9.99,3.22,15.23,3.76h0c.53.05,1.05-.11,1.46-.47.42-.36.67-.89.69-1.44.04-1.04-.75-1.94-1.8-2.05-4.83-.5-9.56-1.67-14.05-3.47-.25-.1-.5-.15-.75-.15ZM81.83,113.76c-.64,0-1.28-.13-1.9-.38-1.28-.53-2.29-1.57-2.77-2.86h0c-.93-2.45.23-5.22,2.62-6.31,4.16-1.88,8.04-4.34,11.54-7.3,2.01-1.7,5.01-1.55,6.83.34.95,1,1.46,2.36,1.39,3.73-.07,1.38-.69,2.62-1.73,3.51-4.23,3.58-8.92,6.56-13.96,8.83-.65.29-1.33.44-2.01.44ZM94.56,98.72c-.46,0-.92.16-1.3.48-3.71,3.14-7.83,5.74-12.24,7.74-.96.44-1.42,1.54-1.05,2.51h0c.2.52.6.94,1.11,1.15.5.21,1.04.2,1.53-.02,4.79-2.16,9.25-4.98,13.26-8.39.41-.34.65-.83.67-1.37.03-.56-.17-1.09-.56-1.5-.38-.4-.9-.6-1.42-.6ZM15.9,97.42c-.15,0-.31,0-.46-.02-1.37-.13-2.59-.79-3.43-1.87h0c-3.41-4.37-6.19-9.19-8.25-14.31-.51-1.27-.47-2.66.11-3.91.58-1.25,1.66-2.22,2.97-2.65,2.49-.82,5.21.44,6.2,2.88,1.71,4.23,4,8.21,6.82,11.82,1.62,2.08,1.35,5.07-.62,6.81-.92.81-2.11,1.26-3.33,1.26ZM8.4,77.4c-.2,0-.41.03-.61.1-.53.18-.96.56-1.2,1.07-.23.49-.24,1.04-.04,1.53,1.96,4.87,4.6,9.44,7.83,13.59h0c.33.42.81.68,1.35.73.56.05,1.1-.12,1.52-.5.78-.69.89-1.88.24-2.72-2.98-3.83-5.41-8.05-7.23-12.54-.31-.78-1.06-1.26-1.85-1.26ZM110.9,82.06c-.67,0-1.34-.13-1.97-.4h0c-2.41-1.03-3.61-3.78-2.73-6.26,1.52-4.29,2.43-8.79,2.72-13.37.16-2.63,2.35-4.69,4.97-4.69,1.38,0,2.71.58,3.65,1.58.94,1,1.42,2.31,1.33,3.68-.34,5.54-1.45,10.98-3.29,16.19-.46,1.29-1.41,2.31-2.67,2.86-.64.28-1.33.42-2.01.42ZM113.88,60.34c-1.04,0-1.91.83-1.98,1.88-.3,4.86-1.28,9.63-2.88,14.18-.35.99.12,2.09,1.08,2.5l-.59,1.38.59-1.38c.51.22,1.09.22,1.6,0,.5-.22.87-.61,1.04-1.12,1.75-4.94,2.8-10.11,3.13-15.37.03-.53-.15-1.04-.52-1.44-.39-.41-.91-.64-1.47-.64ZM5,55.86c-.13,0-.27,0-.4-.02h0c-1.37-.11-2.66-.79-3.52-1.87-.86-1.08-1.22-2.42-1.03-3.77.79-5.48,2.35-10.82,4.62-15.87.56-1.25,1.59-2.18,2.89-2.63,1.3-.45,2.75-.34,3.97.31,2.32,1.22,3.29,4.06,2.21,6.47-1.87,4.16-3.16,8.57-3.81,13.1-.36,2.47-2.49,4.29-4.93,4.29ZM9.19,34.42c-.22,0-.44.04-.65.11-.51.18-.92.54-1.13,1.03-2.16,4.79-3.63,9.85-4.39,15.06-.08.53.07,1.05.41,1.48.35.43.86.71,1.41.75l-.12,1.5.12-1.5c1.04.08,1.97-.67,2.12-1.71.7-4.8,2.06-9.48,4.05-13.9.43-.96.05-2.1-.87-2.58-.29-.15-.62-.23-.94-.23ZM111.54,47.52c-2.14,0-4.11-1.39-4.77-3.52-1.35-4.36-3.31-8.51-5.82-12.34-1.44-2.21-.93-5.16,1.17-6.73,1.1-.83,2.51-1.16,3.87-.92,1.36.24,2.52,1,3.27,2.15,3.04,4.64,5.41,9.67,7.04,14.95.41,1.31.25,2.69-.43,3.89-.68,1.2-1.84,2.07-3.18,2.4-.39.09-.78.14-1.16.14ZM105.12,26.93c-.43,0-.85.14-1.2.4-.83.62-1.04,1.81-.46,2.69,2.66,4.06,4.73,8.47,6.17,13.09h0c.31,1.01,1.35,1.6,2.36,1.36.54-.13,1.01-.48,1.28-.96.27-.47.33-1.01.17-1.52-1.55-5.01-3.8-9.79-6.69-14.19-.29-.45-.75-.74-1.28-.84-.12-.02-.24-.03-.36-.03ZM27.42,19.18c-1.45,0-2.89-.63-3.87-1.83h0c-.87-1.07-1.26-2.47-1.08-3.83.18-1.37.9-2.56,2.01-3.35,4.51-3.23,9.44-5.8,14.64-7.65,1.29-.46,2.68-.36,3.9.27,1.23.63,2.15,1.75,2.53,3.08.72,2.52-.66,5.19-3.14,6.07-4.3,1.53-8.37,3.66-12.09,6.32-.88.63-1.9.93-2.91.93ZM40.78,5.23c-.21,0-.43.04-.64.11-4.94,1.76-9.62,4.2-13.9,7.27-.43.31-.71.78-.78,1.31-.07.56.08,1.1.43,1.54l-1.16.95,1.16-.95c.66.81,1.85.96,2.71.35,3.95-2.82,8.27-5.08,12.83-6.71.99-.35,1.55-1.42,1.26-2.42-.15-.53-.52-.98-1.02-1.24-.28-.14-.58-.22-.89-.22ZM83.67,14.78c-.75,0-1.52-.17-2.24-.53h0c-4.09-2.04-8.44-3.51-12.93-4.35-2.59-.49-4.36-2.9-4.05-5.5.17-1.37.9-2.62,2.02-3.44,1.11-.82,2.47-1.12,3.81-.87,5.44,1.01,10.71,2.79,15.66,5.27,1.22.61,2.11,1.68,2.51,3,.39,1.32.22,2.76-.47,3.96-.92,1.58-2.59,2.47-4.32,2.47ZM69.38,3c-.4,0-.8.13-1.14.38-.45.33-.74.83-.81,1.38-.13,1.03.58,2,1.62,2.19,4.77.9,9.38,2.45,13.72,4.62h0c.94.48,2.09.14,2.62-.76.28-.48.35-1.06.19-1.59-.15-.52-.5-.94-.98-1.17-4.7-2.36-9.7-4.04-14.87-5.01-.12-.02-.24-.03-.35-.03Z"/>
    </g>
  </g>
</svg>